@startuml
title 基于GitHub的实验管理平台--类图
class users {
    <b>user_id</b> （用户ID）
    name （用户真实姓名）
    github_username （用户GitHub账号）
    update_date （用户GitHub账号修改日期）
    password （用户密码）
    telephone （用户电话）
    disable （用户是否禁用）
}
class teachers{
    <b>teacher_id</b> （老师工号）
    course （老师教授课程）
    department （老师所属部门）
}
class students{
    <b>student_id</b> （学号）
    class （班级）
    result_sum（成绩汇总）
    web_sum （网站正确与否汇总）
}
users <|- students
users <|-- teachers
class grades {
    <b>student_id</b> （学号）
    <b>test_id</b> （实验编号）
    part1 （第一项要求得分）
    rate1（比例）
    part2 （第二项要求得分）
    rate2（比例）
    part3 （第三项要求得分）
    rate3（比例）
    part4 （第三项要求得分）
    rate4（比例）
    part5 （第三项要求得分）
    rate5（比例）
    result （该实验分数）
    comments （评语）
    update_date （评改日期）
}

class tests {
    <b>test_id</b> （实验编号）
    title (实验名称)
}

students "1" -- "n"  grades
tests "1" -- "n"  grades

class course{
    <b>course_id</b>（课程编号）
    <b>teacher_id</b>（授课教师工号）
    course_name（课程名称）
    term（学期）
    department（所属学院）
    testnum (实验次数)
    totalstudent (学生总数)
}

class setUserCourse{
     <b>course_id</b>（课程编号）
    <b>student_id</b>（学生名字）
}


tests "n" -- "1" course
setUserCourse "1" -- "1"  students
setUserCourse "1" -- "1"  course
@enduml